<mxfile host="65bd71144e">
    <diagram id="05T2BPjbNAdyikVY3dLG" name="Page-1">
        <mxGraphModel dx="1924" dy="1449" grid="1" gridSize="10" guides="1" tooltips="1" connect="1" arrows="1" fold="1" page="1" pageScale="1" pageWidth="850" pageHeight="1100" background="#0A2B4D" math="0" shadow="0" adaptiveColors="auto">
            <root>
                <mxCell id="0"/>
                <mxCell id="1" parent="0"/>
                <mxCell id="2" value="&lt;div style=&quot;direction: rtl;&quot;&gt;מאגר מילים&lt;/div&gt;&lt;div style=&quot;direction: rtl;&quot;&gt;&lt;br&gt;&lt;/div&gt;" style="ellipse;shape=cloud;whiteSpace=wrap;html=1;" vertex="1" parent="1">
                    <mxGeometry x="90" y="40" width="120" height="80" as="geometry"/>
                </mxCell>
                <mxCell id="5" style="edgeStyle=none;html=1;entryX=0.5;entryY=0;entryDx=0;entryDy=0;fillColor=#d5e8d4;strokeColor=#82b366;" edge="1" parent="1" source="3" target="4">
                    <mxGeometry relative="1" as="geometry"/>
                </mxCell>
                <mxCell id="3" value="התחלת משחק" style="ellipse;whiteSpace=wrap;html=1;aspect=fixed;" vertex="1" parent="1">
                    <mxGeometry x="405" y="50" width="80" height="80" as="geometry"/>
                </mxCell>
                <mxCell id="8" value="" style="edgeStyle=none;html=1;strokeColor=#CCCCFF;strokeWidth=3;" edge="1" parent="1" source="4" target="7">
                    <mxGeometry relative="1" as="geometry"/>
                </mxCell>
                <mxCell id="4" value="&lt;div style=&quot;direction: rtl;&quot;&gt;שחקן מכניס מילה בת&amp;nbsp;&lt;br&gt;5 אותיות&lt;/div&gt;" style="shape=hexagon;perimeter=hexagonPerimeter2;whiteSpace=wrap;html=1;fixedSize=1;" vertex="1" parent="1">
                    <mxGeometry x="385" y="160" width="120" height="50" as="geometry"/>
                </mxCell>
                <mxCell id="10" value="&lt;font style=&quot;font-size: 14px;&quot;&gt;לא&lt;/font&gt;" style="edgeStyle=none;html=1;strokeColor=#CCCCFF;strokeWidth=3;" edge="1" parent="1" source="7" target="9">
                    <mxGeometry relative="1" as="geometry"/>
                </mxCell>
                <mxCell id="13" value="&lt;font&gt;כן&lt;/font&gt;" style="edgeStyle=none;html=1;rounded=1;strokeColor=#CCCCFF;strokeWidth=3;align=center;verticalAlign=middle;fontFamily=Helvetica;fontSize=14;fontColor=default;labelBackgroundColor=default;endArrow=classic;" edge="1" parent="1" source="7" target="12">
                    <mxGeometry relative="1" as="geometry"/>
                </mxCell>
                <mxCell id="7" value="&lt;div style=&quot;direction: rtl;&quot;&gt;&lt;span style=&quot;background-color: transparent;&quot;&gt;האם במאגר מילים?&lt;/span&gt;&lt;/div&gt;" style="rhombus;whiteSpace=wrap;html=1;" vertex="1" parent="1">
                    <mxGeometry x="405" y="240" width="80" height="80" as="geometry"/>
                </mxCell>
                <mxCell id="11" style="edgeStyle=none;html=1;entryX=0.442;entryY=1.033;entryDx=0;entryDy=0;strokeColor=#CCCCFF;strokeWidth=3;entryPerimeter=0;rounded=1;align=center;verticalAlign=middle;fontFamily=Helvetica;fontSize=11;fontColor=default;labelBackgroundColor=default;endArrow=classic;" edge="1" parent="1" source="9" target="14">
                    <mxGeometry relative="1" as="geometry">
                        <Array as="points"/>
                    </mxGeometry>
                </mxCell>
                <mxCell id="9" value="&lt;div style=&quot;direction: rtl;&quot;&gt;&lt;span style=&quot;background-color: transparent;&quot;&gt;הודעת שגיאה&lt;/span&gt;&lt;/div&gt;" style="whiteSpace=wrap;html=1;" vertex="1" parent="1">
                    <mxGeometry x="260" y="265" width="75" height="30" as="geometry"/>
                </mxCell>
                <mxCell id="12" value="&lt;div style=&quot;direction: rtl;&quot;&gt;למחוק מהמקלדת&lt;br&gt;את האותיות ששיכות&lt;br&gt;למילה מהמאגר&lt;/div&gt;" style="rounded=1;whiteSpace=wrap;html=1;" vertex="1" parent="1">
                    <mxGeometry x="570" y="250" width="120" height="60" as="geometry"/>
                </mxCell>
                <mxCell id="15" style="edgeStyle=none;html=1;entryX=0;entryY=0.5;entryDx=0;entryDy=0;rounded=1;strokeColor=#CCCCFF;strokeWidth=3;align=center;verticalAlign=middle;fontFamily=Helvetica;fontSize=11;fontColor=default;labelBackgroundColor=default;endArrow=classic;" edge="1" parent="1" source="14" target="4">
                    <mxGeometry relative="1" as="geometry"/>
                </mxCell>
                <mxCell id="14" value="&lt;div style=&quot;direction: rtl;&quot;&gt;שחקן מוחק\מתקן&lt;/div&gt;" style="shape=hexagon;perimeter=hexagonPerimeter2;whiteSpace=wrap;html=1;fixedSize=1;" vertex="1" parent="1">
                    <mxGeometry x="237.5" y="170" width="120" height="30" as="geometry"/>
                </mxCell>
                <mxCell id="16" value="" style="shape=flexArrow;endArrow=classic;html=1;rounded=1;strokeColor=#CCCCFF;strokeWidth=3;align=center;verticalAlign=middle;fontFamily=Helvetica;fontSize=11;fontColor=default;labelBackgroundColor=default;exitX=0.5;exitY=1;exitDx=0;exitDy=0;entryX=0.5;entryY=0;entryDx=0;entryDy=0;" edge="1" parent="1" source="12" target="17">
                    <mxGeometry width="50" height="50" relative="1" as="geometry">
                        <mxPoint x="460" y="440" as="sourcePoint"/>
                        <mxPoint x="630" y="360" as="targetPoint"/>
                    </mxGeometry>
                </mxCell>
                <mxCell id="22" style="edgeStyle=none;html=1;rounded=1;strokeColor=#CCCCFF;strokeWidth=3;align=center;verticalAlign=middle;fontFamily=Helvetica;fontSize=11;fontColor=default;labelBackgroundColor=default;endArrow=classic;" edge="1" parent="1" source="17" target="21">
                    <mxGeometry relative="1" as="geometry"/>
                </mxCell>
                <mxCell id="17" value="&lt;div style=&quot;direction: rtl;&quot;&gt;פירוק של&amp;nbsp;&lt;br&gt;המילה לאותיות&lt;/div&gt;" style="shape=step;perimeter=stepPerimeter;whiteSpace=wrap;html=1;fixedSize=1;" vertex="1" parent="1">
                    <mxGeometry x="570" y="370" width="120" height="40" as="geometry"/>
                </mxCell>
                <mxCell id="21" value="&lt;div style=&quot;direction: rtl;&quot;&gt;האם האות הינה&lt;br&gt;חלק מהמילה?&lt;/div&gt;" style="shape=parallelogram;perimeter=parallelogramPerimeter;whiteSpace=wrap;html=1;fixedSize=1;" vertex="1" parent="1">
                    <mxGeometry x="570" y="440" width="120" height="40" as="geometry"/>
                </mxCell>
                <mxCell id="24" value="X 5" style="text;html=1;align=center;verticalAlign=middle;whiteSpace=wrap;rounded=0;labelBackgroundColor=none;fontColor=#E5CCFF;fontSize=22;" vertex="1" parent="1">
                    <mxGeometry x="500" y="437.5" width="80" height="45" as="geometry"/>
                </mxCell>
                <mxCell id="29" style="edgeStyle=none;html=1;rounded=1;strokeColor=#CCCCFF;strokeWidth=3;align=center;verticalAlign=middle;fontFamily=Helvetica;fontSize=11;fontColor=default;labelBackgroundColor=default;endArrow=classic;entryX=0.5;entryY=0;entryDx=0;entryDy=0;" edge="1" parent="1" source="32" target="34">
                    <mxGeometry relative="1" as="geometry">
                        <mxPoint x="607.5" y="520" as="targetPoint"/>
                    </mxGeometry>
                </mxCell>
                <mxCell id="31" value="כן" style="edgeStyle=none;html=1;rounded=1;strokeColor=#CCCCFF;strokeWidth=3;align=center;verticalAlign=middle;fontFamily=Helvetica;fontSize=15;fontColor=default;labelBackgroundColor=default;endArrow=classic;" edge="1" parent="1" source="25" target="32">
                    <mxGeometry relative="1" as="geometry">
                        <mxPoint x="450" y="460" as="targetPoint"/>
                    </mxGeometry>
                </mxCell>
                <mxCell id="25" value="" style="rounded=1;whiteSpace=wrap;html=1;fillColor=none;strokeColor=#CCFFFF;strokeWidth=4;" vertex="1" parent="1">
                    <mxGeometry x="505" y="430" width="205" height="60" as="geometry"/>
                </mxCell>
                <mxCell id="38" value="" style="edgeStyle=none;html=1;" edge="1" parent="1" source="32" target="37">
                    <mxGeometry relative="1" as="geometry"/>
                </mxCell>
                <mxCell id="32" value="&lt;div style=&quot;direction: rtl;&quot;&gt;&lt;span style=&quot;background-color: transparent;&quot;&gt;לצבוע את האות&lt;br&gt;בצהוב&lt;/span&gt;&lt;/div&gt;" style="shape=step;perimeter=stepPerimeter;whiteSpace=wrap;html=1;fixedSize=1;" vertex="1" parent="1">
                    <mxGeometry x="335" y="437.5" width="120" height="50" as="geometry"/>
                </mxCell>
                <mxCell id="36" value="כן" style="edgeStyle=none;html=1;entryX=0.5;entryY=0;entryDx=0;entryDy=0;rounded=1;strokeColor=#CCCCFF;strokeWidth=3;align=center;verticalAlign=middle;fontFamily=Helvetica;fontSize=16;fontColor=default;labelBackgroundColor=default;endArrow=classic;" edge="1" parent="1" source="34" target="35">
                    <mxGeometry relative="1" as="geometry"/>
                </mxCell>
                <mxCell id="34" value="&lt;span style=&quot;color: rgb(63, 63, 63);&quot;&gt;האם האות במקום&lt;/span&gt;&lt;br style=&quot;color: rgb(63, 63, 63);&quot;&gt;&lt;span style=&quot;color: rgb(63, 63, 63);&quot;&gt;הנכון של המילה?&lt;/span&gt;" style="rhombus;whiteSpace=wrap;html=1;" vertex="1" parent="1">
                    <mxGeometry x="331.25" y="510" width="127.5" height="80" as="geometry"/>
                </mxCell>
                <mxCell id="35" value="&lt;div style=&quot;direction: rtl;&quot;&gt;לצבוע את &lt;br&gt;האות בירוק&lt;/div&gt;" style="shape=step;perimeter=stepPerimeter;whiteSpace=wrap;html=1;fixedSize=1;" vertex="1" parent="1">
                    <mxGeometry x="331.25" y="650" width="120" height="50" as="geometry"/>
                </mxCell>
                <mxCell id="37" value="&lt;div style=&quot;direction: rtl;&quot;&gt;לצבוע גם&amp;nbsp;&lt;br&gt;במקלדת&lt;/div&gt;" style="shape=step;perimeter=stepPerimeter;whiteSpace=wrap;html=1;fixedSize=1;" vertex="1" parent="1">
                    <mxGeometry x="237.5" y="437.5" width="120" height="50" as="geometry"/>
                </mxCell>
                <mxCell id="39" value="&lt;div style=&quot;direction: rtl;&quot;&gt;לצבוע גם&amp;nbsp;&lt;br&gt;במקלדת&lt;/div&gt;" style="shape=step;perimeter=stepPerimeter;whiteSpace=wrap;html=1;fixedSize=1;" vertex="1" parent="1">
                    <mxGeometry x="230" y="651.25" width="120" height="47.5" as="geometry"/>
                </mxCell>
                <mxCell id="41" style="edgeStyle=none;html=1;entryX=1;entryY=0.5;entryDx=0;entryDy=0;exitX=1;exitY=0.569;exitDx=0;exitDy=0;exitPerimeter=0;rounded=1;strokeColor=#CCCCFF;strokeWidth=3;align=center;verticalAlign=middle;fontFamily=Helvetica;fontSize=11;fontColor=default;labelBackgroundColor=default;endArrow=classic;" edge="1" parent="1" source="40" target="4">
                    <mxGeometry relative="1" as="geometry">
                        <Array as="points">
                            <mxPoint x="810" y="594"/>
                            <mxPoint x="810" y="185"/>
                        </Array>
                    </mxGeometry>
                </mxCell>
                <mxCell id="40" value="" style="rounded=1;whiteSpace=wrap;html=1;fillColor=none;strokeColor=#CCFFFF;strokeWidth=4;" vertex="1" parent="1">
                    <mxGeometry x="220" y="427.5" width="270" height="292.5" as="geometry"/>
                </mxCell>
                <mxCell id="42" value="" style="shape=image;verticalLabelPosition=bottom;labelBackgroundColor=default;verticalAlign=top;aspect=fixed;imageAspect=0;image=data:image/png,iVBORw0KGgoAAAANSUhEUgAAAm4AAAK2CAYAAAD3xRBRAAAAAXNSR0IArs4c6QAAAARnQU1BAACxjwv8YQUAAAAJcEhZcwAADsMAAA7DAcdvqGQAAGF/SURBVHhe7d3rs215Xd/7/A1JzkP1CfoYENFYeUApeeKpgkrlgRVPUqeOFSJKoRxSOXLVEA6KtIgBARPlFi8gQoOAQOTiKQlJYYMCYqCh5d5cummabrqhRXQev6v33N/RY7/X2uMy16+/Y/zes+pV3XuP31r1/X7mb/7Gd8+19tr/4B/+w390kCRJUn0ObpIkSRvh4CZJkrQRDm6SJEkb4eAmSZK0EQ5ukiRJG+HgJkmStBEObpIkSRvh4CZJkrQRDm6SJEkb4eAmSZK0EQ5ukiRJG+HgJkmStBH/4Id+6IcOkiRJqs933CRJkjbCwU2SJGkjHNwkSZI2wsFNkiRpIxzcJEmSNsLBTZIkaSMc3CRJkjbCwU2SJGkjHNwkSZI2wsFNkiRpIxzcJEmSNsLBTZIkaSMc3CRJkjbCwU2SJGkjHNwkSZI2wsFNkiRpIxzcJEmSNsLBTZIkaSMc3CRJkjbCwU2SJGkjHNwkSZI2wsFNkiRpIxzcJEmSNsLBTZIkaSMc3CRJkjbCwU2SJGkjHNwkSZI2wsFNTfzgD/7TLplFMotkFsksEmUhjTm4qQk6pHpgFsksklkks0iUhTTm4KYm6JDqgVkks0hmkcwiURbSmIObmqBDqgdmkcwimUUyi0RZSGMObmqCDqkemEUyi2QWySwSZSGNObipCTqkemAWySySWSSzSJSFNObgpibokOqBWSSzSGaRzCJRFtKYg5uaoEOqB2aRzCKZRTKLRFlIYw5uaoIOqR6YRTKLZBbJLBJlIY05uKkJOqR6YBbJLJJZJLNIlIU05uCmJuiQ6oFZJLNIZpHMIlEW0piDm5qgQ6oHZpHMIplFMotEWUhjDm5qgg6pHphFMotkFsksEmUhjTm4qQk6pHpgFsksklkks0iUhTTm4KYm6JDqgVkks0hmkcwiURbSmIObmqBDqgdmkcwimUUyi0RZSGMObmqCDqkemEUyi2QWySwSZSGNObipCTqkemAWySySWSSzSJSFNObgpibokLoMT3nK0w7ve9/7Dl/72tcO3/72tw/Hx3333Xf4zGc+c/jt3/6dw2Mf+8/xYy9D6yye9axnH+69994rXefjTW96M65vqVUWlMG3vvWtw8tf/gpcH+hjLjOzVlkc3XTTTVe6mv+IXCIf+ryn0CqLKRn89V//9eHOO+88fPjDHz688IUvOjz60f8MP9dloSykMQc3NUGH1Ck97nH/9vCRj/zl4e/+7u+uHMHnP7761a+eHcr0eU6tdRYObg5uxMFtWQZ333334bWv/f1mAxxlIY05uKkJOqRO5clP/neHL37xi1eO2mmP+JP1K1/5Kvx8p9Q6Cwc3Bzfi4LY8g/jD4F/+5V8efuzH/hV+3lOiLKQxBzc1QYfUKcRh+olP3HLliJ33iD9NP+95N+DnPZWWWQQHNwc34uC2LoN4xDlz2cMbZSGNObipCTqkTuGd73zXNV8ejV9/+tOfPjz3ub90tubHf/zfHN7+9reffZ/b+HHLLbccfvRH/+U1n/dUWmYRHNwc3AgNLZ/85KdwbWutsqAMbrvttsMTn/jTZ18K/bmf+/mz5/xLX/oyfstF/F6cN/S5T4WykMYc3NQEHVJrxUF71113XTlW83Hen4zjS6PxJdLhI3790pf++jVrT6VVFkcObg5uxMHt4sFtuC6GuPiD3vAvNx0f8S798Q+El4GykMYc3NQEHVJrvfnNb7nmT8YXDWJxIN98881XVuYjDnRafwqtsjhycHNwIw5u0we3o/e857/jO29/8ifvwfWnQFlIYw5uaoIOqbXiy5zjx+c+97kLv/T5ute9/vC3f/u3V1Yfzv5U/Vd/9cnDv/7X/yeuX6tVFkcObg5uxMFt/uAWf+npjjvuuLIyH9c7Y9agLKQxBzc1QYfUGj/zM0863H77V64cpfl4//s/gOuPbrjhlw8f/OAHD2984x+cfan1sv+af4sshhzcHNyIg9v8wS3Ez3MbP77+9a8ffv7n/wOuX4uykMYc3NQEHVJrnDeg/OEfvhXXP1haZDHk4ObgRmhouejRcr+0ymLJ4BY5jB/x7Ri/8Ru/ievXoiykMQc3NUGH1BpxcI7/okE8KgwoQy2yGHJwc3AjDm7LBrfxt1bEI/bSZf0MSMpCGnNwUxN0SK0RN+E4QMcPBzcHNwe3azm4LRvcWp8zlIU05uCmJuiQWmPqgRq/vt7jeof3Gi2yGHJwc3AjDm7LBrf4Xtjx3yyNveQ7bnowObipCTqk1jhvQBl/j5uD2/0PBzcHt/HDv5xw/dc+nR/X20trUBbSmIObmqBDao1//+//n7N/LH78iMN5uM7B7f6Hg5uD2/jh4Hb91378LfXxw79Vqgebg5uaoENqjfgxHvHz18aP8c9YcnC7/9H74BbfYB7faE7rw3Oe84t//zHfuLL6ct9VCa2yOHJwmz+4xe/H9fHDn+OmB5uDm5qgQ2qtP/qjd1zz/Sdx873hhufj+vD85//K4RvfyBt0PBzc2miVxdR3Y4duvPEND/jbg7FHYq/Q2lNolcWRg9v8we3tb/9v1/yN0jhv4tyh9adAWUhjDm5qgg6pteLLFfFvB44f5/1bpfF7cW38cHBro1UW570bG3vlec+74Zr18RPyv/zlL19Zdf/jMvdEaJXFkYPbvMEt3p2lHzcUe+iyvkwaKAtpzMFNTdAhdQr07wnGrz/96U+f/SsJcRN/7GP/+eHXf/0/Hz7/+VuvWRsPB7c2WmZB78bGI74/6cYbbzwb4mNvvOAFv3q2L8aP9773vfh5T6VlFsHB7eLBLfbC05729LN3Xr/4xS/i3onfe+c734Wf+1QoC2nMwU1N0CF1CnHofulLD3y3ZO6jh8FtyiM+Lj6ePu8ptMwins94Xpc84l2V+J43+ryn0jKLQEPLnMdlDv6tslibwXnv5J8SZSGNObipCTqkTuVnf/Yp13yp66JH/Mn5b/7mb678ysHt+NjT4BZe8YpXHu67774r3U17xJfHLutndA21zsLBbXkGcV58/OOfODzucf8WP+8pURbSmIObmqBD6pSe8IQnHj72sY/hlziGj29/+9uHd73r3YeXvvTXr97UHdzuf+xtcAvx5fLbb7/9uvsiHvFl1BZDW2idhYPbsgy++c1vnv0lhfhSKn3OU6MspDEHNzVBh9RleO5zf+nw4Q9/+HDPPfdcvVnHsPa1r33t8L73ve/wlKc87era+HWscXC7/7HHwS3ETfeFL3zR4S/+4iNnXwaN/XB8xPD+mc985uyb0eN7IenjL0PrLBzcpmUQ50G8DuL7/17/+vu/F5I+12WhLKQxBzc1QYdUD8wimUUyi2QWibKQxhzc1AQdUj0wi2QWySySWSTKQhpzcFMTdEj1wCySWSSzSGaRKAtpzMFNTdAh1QOzSGaRzCKZRaIspDEHNzVBh1QPzCKZRTKLZBaJspDGHNzUBB1SPTCLZBbJLJJZJMpCGnNwUxN0SPXALJJZJLNIZpEoC2nMwU1N0CHVA7NIZpHMIplFoiykMQc3NUGHVA/MIplFMotkFomykMYc3NQEHVI9MItkFsksklkkykIac3BTE3RI9cAsklkks0hmkSgLaczBTU3QIdUDs0hmkcwimUWiLKQxBzc1QYdUD8wimUUyi2QWibKQxhzc1AQdUj0wi2QWySySWSTKQhpzcFMTdEj1wCySWSSzSGaRKAtpzMFNTdAh1QOzSGaRzCKZRaIspDEHNzVBh1QPzCKZRTKLZBaJspDGHNzUBB1SPTCLZBbJLJJZJMpCGnNwUxN0SPXALJJZJLNIZpEoC2nMwU1N0CHVA7NIZpHMIplFoiykMQc3NUGHVA/MIplFMotkFomykMYc3CRJkjbCwU2SJGkjHNwkSZI2wsFNkiRpIxzcJEmSNsLBTZIkaSMc3NQE/dX3HphFoiz+xfMf0yWzSJQF7Z8eUBbSmIObmqBDqgdmkSgLupH3wCwSZUH7pweUhTTm4KYm6JDqgVkkyoJu5D0wi0RZ0P7pAWUhjTm4qQk6pHpgFomyoBt5D8wiURa0f3pAWUhjDm5qgg6pHphFoizoRt4Ds0iUBe2fHlAW0piDm5qgQ6oHZpEoC7qR98AsEmVB+6cHlIU05uCmJuiQ6oFZJMqCbuQ9MItEWdD+6QFlIY05uKkJOqR6YBaJsqAbeQ/MIlEWtH96QFlIYw5uaoIOqR6YRaIs6EbeA7NIlAXtnx5QFtKYg5uaoEOqB2aRKAu6kffALBJlQfunB5SFNObgpibokOqBWSTKgm7kPTCLRFnQ/ukBZSGNObipCTqkemAWibKgG3kPzCJRFrR/ekBZSGMObmqCDqkemEWiLOhG3gOzSJQF7Z8eUBbSmIObmqBDqgdmkSgLupH3wCwSZUH7pweUhTTm4KYm6JDqgVkkyoJu5D0wi0RZ0P7pAWUhjTm4qQk6pHpgFomyoBt5D8wiURa0f3pAWUhjDm5qgg6pHphFoizoRt4Ds0iUBe2fHlAW0piDm5qgQ6oHZpEoC7qR98AsEmVB+6cHlIU05uCmJuiQWutZz3r24d577z1Mefzd3/3d4Rvf+MbhM5/5zOF1r3v94bGP/ef4OU+tVRbkhS/8tcPHP/6Js4yi/2MO9977jbPff8lLXnp49KP/GX7sZaAs6EZ+Crd84ZbDfffdd13fvO+bh7vuuetw6+2fP/x/f/HuwzNe/RT8fKfWMouxl73rvxxu/vzHDnfefedZ/8ccvvb1O89+/5V//LLD//HCH8WPvQyUBe2fteacFxc93vSmN+PnPwXKQhpzcFMTdEitteYgvvvuuw8vfvFL8POeUqsshp71rP94+PznP391WDvvEddj3S/8wi/i5zk1yoJu5KcwdXAbu/ueuw/v/NA7Ln1waZnF0QvecsPhM1/+9NVh7TxxPda98K0vwM9zapQF7Z+1HNy0Fw5uaoIOqbXWHsR//dd/fXjlK1+Fn/tUWmVx9Ju/+bLZmcTN+hWveCV+vlOiLOhGfgpLB7fwjW9+4/BHH3w7ft5TaZlF+J33/NbZO2zU73liiH31e34HP98pURa0f9ZycNNeOLipCTqk1jrFQXzrrbceHve4f4uf/xRaZRHiHcT4cvCSR7wD+bzn3YCf91QoC7qRn8KawS3Elw1f+t9+DT/3KbTM4hV//LK/7+dr2Of13HHXHYeXvP1F+HlPhbKg/bOWg5v2wsFNTdAhtdZ5B/H4YP3xH/83hz/8w7fi2m9961uHl7/8FQ9Yf0qtsojhM4bQ8ePb3/724f3vf//hyU/+d2fr4r/x6/j98eOzn/3s4cd+7F9d87lPhbKgG/kp0OD2gVtuesCax/3n/+vs+73O+/LhH//Fux6w/pRaZfGzv/PvDp+77bPX9BbvKn7glvcf/uPv/9zZuvhv/Preb9x7zdpPf+lTh59++U9d87lPhbKg/XNZ6By57HPhPJSFNObgpibokFpr6uB29KpX/dezA3n8+JM/eQ+uP4VWWdx44xsOf/u3f3ulo/sf8T1s73znu3D9W9/6tmuGt/h1/MUNWn8KlAXdyE9hyuB2dN5wc976U2iVxR++/01nQ9qwrxhS4y9i0Pr4EvF4ffz6zTe9EdefAmVB++eyOLhpaxzc1AQdUmvNHdx+5meedLj99q9cWZWPm266CdefQoss4m+G/tVfffJKN/m47bbbDk984k/jx8Q7dF/84hevrMzHzTfffGl/05SyoBv5KcwZ3AKtf+9H/zuuPYUWWcRfsLjlC5+4pq8vfOXWwzNf81T8mPOG2I997qOX9hc2KAvaP5fFwU1b4+CmJuiQWsvB7X5Pf/ozD3fdddeVbvJxvb7incbxIz5PfD5avxZlQTfyU1j7jts937jn8Nr/8RpcfwotsnjeH/zi4Stfu/0BfYXrvZMYA+v4Y+LzxOej9WtRFrR/LouDm7bGwU1N0CG11tzBLQ7i8ZdK48uJb37zW3D9KbTIgvqKL5te78uecX385dX4m7a/8Ru/ievXoizoRn4KU7/H7T//0UsOH//8zdd8j1v8Xuvv66J1a/zue377cM+99zygrylf9ozr4y+Xfv3erx9+50/+K65fi7Kg/XNZHNy0NQ5uaoIOqbWmDm7xDfc33njj4etf//qVFfmIH0Z7ww3Pf8D6U2qRRfQ7fky58dDAF4/zBt+1KAu6kZ8CDW5Txbtvx2/avywtsnj7n7/1mt5ikIuBjtYf0cAX4vPR+rUoC9o/l8XBTVvj4KYm6JBa67zBbc7jox/96KX+6wEtsnjHO955pZt8RC6RD60/es5zfvFscB0/eh3cvvK1r5x9c368E0ef85RaZBF/K3bcY/wstxe85Zdx/VH84N34cSjjj3Vwu3yUhTTm4KYm6JBaa+3g9uUvf/nqj8m4LC2yiO9lGz+mDG7n5XdZ3/NHWdCN/BSWDG7x5dL4Xq4/+NM37OJfTogvDY97nDK4xXX6Yb3X+964pSgL2j+XxcFNW+PgpibokFpr6eAWP/Yi3ml7whOeiJ/3lFpk4Ttu11rzpdIY4G76xPsudXhrkYXvuE3j4KatcXBTE3RIrbV0cLvMH3kx1iILv8ftWlP+ckKI72X7nx/7H9f84NkH42eX0bo1/B63aRzctDUObmqCDqm1zhvchoPHe9/73iu/m4/L/gsJQy2yoAEs3lX83d99Na4/6v1vlQ7RlxXjZ6C1/NlltG4NGsBiQH39//z9a9YO+bdKHdxUm4ObmqBDaq0pg1sMaPTlwBjohp/rsrTI4ryf43a9fxGCvjeux5/jFmKYGb/r1vpnl9G6Nc77OW7X+8HCNMT6c9zaoCykMQc3NUGH1FpTBrf4kmh8aXT8iAHl537u5x/w+S5DiyzO+5cT4l9GOO8f0D/vX0742Mc+hutPgbKgG/kpzB3c6F2mKd8PtlSLLM77lxPix53EDx2mjznvX0746Of+F64/BcqC9s9lcXDT1ji4qQk6pNaaMriF3/qt3z78zd/8zZWr9z/iB+/+0R+94wHrLkOrLOLLnvRvj8a/SUrr3/72/3bNl0kjo8iK1p8CZUE38lOYM7jFgPOhT33wmvVfveuOw/Pf/Dz8mLVaZUEDafw6fuwJrX/nh95xzfoH41+RoP1zWRzctDUObmqCDqm1pg5u5727dNE7UqfSKov4IcOf/exnr3SWjxje4svCxx97Ev99//vff82QF4+Pf/wThx/90X95zec+FcqCbuSnMHVwi8Hsg5/8s2uGlfC52z93+Pe/9X9f8zGn0CqL+NcfPv2lT13TW3xZOP5SxvEHDcd/P3DL+6/5cnG4+fMfOzzhZT9xzec+FcqC9s9lcXDT1ji4qQk6pNaaOriFeHct3mUbPuIdple/+uJv4F+rVRbhec+74XD33Xdf6W7eIz4uPp4+76lQFnQjPwUa3OaIHwny7g+/Ez/3KbTM4iVvf9HhjrvuwD6vJz4uPp4+76lQFrR/LouDm7bGwU1N0CG11pzBLd5puuOOO66syMdnPvOZ5u8y0bpTefGLX4L/tNdFj/h+vxe84Ffx850SZUE38lNYO7jdevvnL/WfvWqZRXjFH7/s7Eu/1Ot54i8k/Jd3vBQ/3ylRFrR/LouDm7bGwU1N0CG11pzBLdCPBokff/HSl/46rj+FVlkM/ezPPuXsy6bjdxjHj7gefxnhSU96Mn6eU6Ms6EZ+CmsGtxjaXvCWG/DznkrLLI5+4cb/ePZl0/E/qD8W1+MvI/yH1z4TP8+pURa0fy6Lg5u2xsFNTdAhtdbcwe28Hw3yoQ99+NJ+IG+rLMgLX/hrZ9+3Fhkdh7j4b7wj9+EPf/jw3Of+En7cZaEs6EZ+CnMHt7vvufvw6S9/+vC2P/vD3fxbped52bv+y9n3rcXfmj0OcfHfeEfuw5/64OHX3vaf8OMuC2VB++eyOLhpaxzc1AQdUj0wi0RZ0I28B2aRKAvaPz2gLKQxBzc1QYdUD8wiURZ0I++BWSTKgvZPDygLaczBTU3QIdUDs0iUBd3Ie2AWibKg/dMDykIac3BTE3RI9cAsEmVBN/IemEWiLGj/9ICykMYc3NQEHVI9MItEWdCNvAdmkSgL2j89oCykMQc3NUGHVA/MIlEWdCPvgVkkyoL2Tw8oC2nMwU1N0CHVA7NIlAXdyHtgFomyoP3TA8pCGnNwUxN0SPXALBJlQTfyHphFoixo//SAspDGHNzUBB1SPTCLRFnQjbwHZpEoC9o/PaAspDEHNzVBh1QPzCJRFnQj74FZJMqC9k8PKAtpzMFNTdAh1QOzSJQF3ch7YBaJsqD90wPKQhpzcFMTdEj1wCwSZUE38h6YRaIsaP/0gLKQxhzc1AQdUj0wi0RZ0I28B2aRKAvaPz2gLKQxBzc1QYdUD8wiURZ0I++BWSTKgvZPDygLaczBTU3QIdUDs0iUBd3Ie2AWibKg/dMDykIac3BTE3RI9cAsEmVBN/IemEWiLGj/9ICykMYc3NQEHVI9MItEWdCNvAdmkSgL2j89oCykMQc3NUGHVA/MIlEWdCPvgVkkyoL2Tw8oC2nMwU1N0CHVA7NIlAXdyHtgFomyoP3TA8pCGnNwUxN0SPXALBJlQTfyHphFoixo//SAspDGHNzUBB1SPTCLRFnQjbwHZpEoC9o/PaAspDEHN0mSpI1wcJMkSdoIBzdJkqSNcHCTJEnaCAc3SZKkjXBwUxP0N6h6YBbJLJJZJLNIlIU05uCmJuiQ6oFZJLNIZpHMIlEW0piDm5ro7WC6qF+zmHZtj8wimUXqrV+t4+CmJjyIp13bI7NIZpHMIvXWr9ZxcFMTHsTTru2RWSSzSGaReutX6zi4qQkP4mnX9sgsklkks0i99at1HNzUhAfxtGt7ZBbJLJJZpN761ToObmrCg3jatT0yi2QWySxSb/1qHQc3NeFBPO3aHplFMotkFqm3frWOg5ua8CCedm2PzCKZRTKL1Fu/WsfBTU14EE+7tkdmkcwimUXqrV+t4+CmJjyIp13bI7NIZpHMIvXWr9ZxcFMTHsTTru2RWSSzSGaReutX6/yDf/yP/7eD+kYb49Q8iKdd2yOzSGaRzCL11q/W8R03NeFBPO3aHplFMotkFqm3frWOg5ua8CCedm2PzCKZRTKL1Fu/WsfBTU14EE+7tkdmkcwimUXqrV+t4+CmJjyIp13bI7NIZpHMIvXWr9ZxcFMTHsTTru2RWSSzSGaReutX6zi4qQkP4mnX9sgsklkks0i99at1HNzUhAfxtGt7ZBbJLJJZpN761ToObmrCg3jatT0yi2QWySxSb/1qHQc3NeFBPO3aHplFMotkFqm3frWOg5ua8CCedm2PzCKZRTKL1Fu/WsfBTU14EE+7tkdmkcwimUXqrV+t4+CmJjyIp13bI7NIZpHMIvXWr9ZxcFMTHsTTru2RWSSzSGaReutX6zi4qQkP4mnX9sgsklkks0i99at1HNzUhAfxtGt7ZBbJLJJZpN761ToObmrCg3jatT0yi2QWySxSb/1qHQc3NeFBPO3aHplFMotkFqm3frWOg5ua8CCedm2PzCKZRTKL1Fu/WsfBTU14EE+7tkdmkcwimUXqrV+t4+CmJjyIp13bI7NIZpHMIvXWr9ZxcFMTHsTTru2RWSSzSGaReutX6zi4qQkP4mnX9sgsklkks0i99at1HNzUhAfxtGt7ZBbJLJJZpN761ToObmrCg3jatT0yi2QWySxSb/1qHQc3NeFBPO3aHplFMotkFqm3frWOg5ua8CCedm2PzCKZRTKL1Fu/WsfBTU14EE+7tkdmkcwimUXqrV+t4+CmJjyIp13bI7NIZpHMIvXWr9ZxcFMTHsTTru2RWSSzSGaReutX6zi4qQkP4mnX9sgsklkks0i99at1HNzUhAfxtGt7ZBbJLJJZpN761ToObmrCg3jatT0yi2QWySxSb/1qHQc3NeFBPO3aHplFMotkFqm3frWOg5ua8CCedm2PzCKZRTKL1Fu/WsfBTU14EE+7tkdmkcwimUXqrV+t4+CmJjyIp13bI7NIZpHMIvXWr9ZxcFMTHsTTru2RWSSzSGaReutX6zi4qQkP4mnX9sgsklkks0i99at1HNzUhAfxtGt7ZBbJLJJZpN761ToObmrCg3jatT0yi2QWySxSb/1qHQc3NeFBPO3aHplFMotkFqm3frWOg5ua8CCedm2PzCKZRTKL1Fu/WsfBTU14EE+7tkdmkcwimUXqrV+t4+CmJjyIp13bI7NIZpHMIvXWr9ZxcFMTHsTTru2RWSSzSGaReutX6zi4qQkP4mnX9sgsklkks0i99at1HNzUxPFg6o1ZJLNIZpHMIlEW0piDm5qgQ6oHZpHMIplFMotEWUhjDm6SJEkb4eAmSZK0EQ5ukiRJG+HgJkmStBEObpIkSRvh4CZJkrQRDm5qgv7qew/MIplFMotkFomykMYc3NQEHVI9MItkFsksklkkykIac3BTE70dTBf1axbTru2RWSSzSL31q3Uc3NSEB/G0a3tkFsksklmk3vrVOg5uasKDeNq1PTKLZBbJLFJv/WodBzc14UE87doemUUyi2QWqbd+tY6Dm5rwIJ52bY/MIplFMovUW79ax8FNTXgQT7u2R2aRzCKZReqtX63j4KYmPIinXdsjs0hmkcwi9dav1nFwUxMexNOu7ZFZJLNIZpF661frOLipCQ/iadf2yCySWSSzSL31q3Uc3NSEB/G0a3tkFsksklmk3vrVOg5uasKDeNq1PTKLZBbJLFJv/WodBzc14UE87doemUUyi2QWqbd+tY6Dm5rwIJ52bY/MIplFMovUW79ax8FNTXgQT7u2R2aRzCKZReqtX63j4KYmPIinXdsjs0hmkcwi9dav1nFwUxMexNOu7ZFZJLNIZpF661frOLipCQ/iadf2yCySWSSzSL31q3Uc3NSEB/G0a3tkFsksklmk3vrVOg5uasKDeNq1PTKLZBbJLFJv/WodBzc14UE87doemUUyi2QWqbd+tY6Dm5rwIJ52bY/MIplFMovUW79ax8FNTXgQT7u2R2aRzCKZReqtX63j4KYmPIinXdsjs0hmkcwi9dav1nFwUxMexNOu7ZFZJLNIZpF661frOLipCQ/iadf2yCySWSSzSL31q3Uc3NSEB/G0a3tkFsksklmk3vrVOg5uasKDeNq1PTKLZBbJLFJv/WodBzc14UE87doemUUyi2QWqbd+tY6Dm5rwIJ52bY/MIplFMovUW79ax8FNTXgQT7u2R2aRzCKZReqtX63j4KYmPIinXdsjs0hmkcwi9dav1nFwUxMexNOu7ZFZJLNIZpF661frOLipCQ/iadf2yCySWSSzSL31q3Uc3NSEB/G0a3tkFsksklmk3vrVOg5uasKDeNq1PTKLZBbJLFJv/WodBzc14UE87doemUUyi2QWqbd+tY6Dm5rwIJ52bY/MIplFMovUW79ax8FNTXgQT7u2R2aRzCKZReqtX63j4KYmPIinXdsjs0hmkcwi9dav1nFwUxMexNOu7ZFZJLNIZpF661frOLipCQ/iadf2yCySWSSzSL31q3Uc3NSEB/G0a3tkFsksklmk3vrVOg5uasKDeNq1PTKLZBbJLFJv/WodBzc14UE87doemUUyi2QWqbd+tY6Dm5rwIJ52bY/MIplFMovUW79ax8FNTXgQT7u2R2aRzCKZReqtX63j4KYmPIinXdsjs0hmkcwi9dav1nFwUxMexNOu7ZFZJLNIZpF661frOLipCQ/iadf2yCySWSSzSL31q3Uc3NSEB/G0a3tkFsksklmk3vrVOg5uasKDeNq1PTKLZBbJLFJv/WodBzc14UE87doemUUyi2QWqbd+tY6Dm5rwIJ52bY/MIplFMovUW79ax8FNTXgQT7u2R2aRzCKZReqtX63j4KYmPIinXdsjs0hmkcwi9dav1nFwUxMexNOu7ZFZJLNIZpF661frOLipCQ/iadf2yCySWSSzSL31q3Uc3NSEB/G0a3tkFsksklmk3vrVOg5uauJ4MPXGLJJZJLNIZpEoC2nMwU1N0CHVA7NIZpHMIplFoiykMQc3SZKkjXBwkyRJ2ggHN0mSpI1wcJMkSdoIBzdJkqSNcHBTE/Q3qHpgFsksklkks0iUhTTm4KYm6JDqgVkks0hmkcwiURbSmIObmujtYLqoX7OYdm2PzCKZReqtX63j4KYmPIinXdsjs0hmkcwi9dav1nFwUxMexNOu7ZFZJLNIZpF661frOLipCQ/iadf2yCySWSSzSL31q3Uc3NSEB/G0a3tkFsksklmk3vrVOg5uasKDeNq1PTKLZBbJLFJv/WodBzc14UE87doemUUyi2QWqbd+tY6Dm5rwIJ52bY/MIplFMovUW79ax8FNTXgQT7u2R2aRzCKZReqtX63j4KYmPIinXdsjs0hmkcwi9dav1nFwUxMexNOu7ZFZJLNIZpF661frOLipCQ/iadf2yCySWSSzSL31q3Uc3NSEB/G0a3tkFsksklmk3vrVOg5uasKDeNq1PTKLZBbJLFJv/WodBzc14UE87doemUUyi2QWqbd+tY6Dm5rwIJ52bY/MIplFMovUW79ax8FNTXgQT7u2R2aRzCKZReqtX63j4KYmPIinXdsjs0hmkcwi9dav1nFwUxMexNOu7ZFZJLNIZpF661frOLipCQ/iadf2yCySWSSzSL31q3Uc3NSEB/G0a3tkFsksklmk3vrVOg5uasKDeNq1PTKLZBbJLFJv/WodBzc14UE87doemUUyi2QWqbd+tY6Dm5rwIJ52bY/MIplFMovUW79ax8FNTXgQT7u2R2aRzCKZReqtX63j4KYmPIinXdsjs0hmkcwi9dav1nFwUxMexNOu7ZFZJLNIZpF661frOLipCQ/iadf2yCySWSSzSL31q3Uc3NSEB/G0a3tkFsksklmk3vrVOg5uasKDeNq1PTKLZBbJLFJv/WodBzc14UE87doemUUyi2QWqbd+tY6Dm5rwIJ52bY/MIplFMovUW79ax8FNTXgQT7u2R2aRzCKZReqtX63j4KYmPIinXdsjs0hmkcwi9dav1nFwUxMexNOu7ZFZJLNIZpF661frOLipCQ/iadf2yCySWSSzSL31q3Uc3NSEB/G0a3tkFsksklmk3vrVOg5uasKDeNq1PTKLZBbJLFJv/WodBzc14UE87doemUUyi2QWqbd+tY6Dm5rwIJ52bY/MIplFMovUW79ax8FNTXgQT7u2R2aRzCKZReqtX63j4KYmPIinXdsjs0hmkcwi9dav1nFwUxMexNOu7ZFZJLNIZpF661frOLipCQ/iadf2yCySWSSzSL31q3Uc3NSEB/G0a3tkFsksklmk3vrVOg5uasKDeNq1PTKLZBbJLFJv/WodBzc14UE87doemUUyi2QWqbd+tY6Dm5rwIJ52bY/MIplFMovUW79ax8FNTXgQT7u2R2aRzCKZReqtX63j4KYmPIinXdsjs0hmkcwi9dav1nFwUxMexNOu7ZFZJLNIZpF661frOLipCQ/iadf2yCySWSSzSL31q3Uc3NSEB/G0a3tkFsksklmk3vrVOg5uasKDeNq1PTKLZBbJLFJv/WodBzc14UE87doemUUyi2QWqbd+tY6Dm5rwIJ52bY/MIplFMovUW79ax8FNTXgQT7u2R2aRzCKZReqtX63j4KYmPIinXdsjs0hmkcwi9dav1nFwUxPHg6k3ZpHMIplFMotEWUhjDm5qgg6pHphFMotkFsksEmUhjTm4SZIkbYSDmyRJ0kY4uEmSJG2Eg5skSdJGOLhJkiRthIObJEnSRji4qQn6q+89MItkFsksklkkykIac3BTE3RI9cAsklkks0hmkSgLaczBTU30djBd1K9ZTLu2R2aRzCL11q/WcXBTEx7E067tkVkks0hmkXrrV+s4uKkJD+Jp1/bILJJZJLNIvfWrdRzc1IQH8bRre2QWySySWaTe+tU6Dm5qwoN42rU9MotkFsksUm/9ah0HNzXhQTzt2h6ZRTKLZBapt361joObmvAgnnZtj8wimUUyi9Rbv1rHwU1NeBBPu7ZHZpHMIplF6q1frePgpiY8iKdd2yOzSGaRzCL11q/WcXBTEx7E067tkVkks0hmkXrrV+s4uKkJD+Jp1/bILJJZJLNIvfWrdRzc1IQH8bRre2QWySySWaTe+tU6Dm5qwoN42rU9MotkFsksUm/9ah0HNzXhQTzt2h6ZRTKLZBapt361joObmvAgnnZtj8wimUUyi9Rbv1rHwU1NeBBPu7ZHZpHMIplF6q1frePgpiY8iKdd2yOzSGaRzCL11q/WcXBTEx7E067tkVkks0hmkXrrV+s4uKkJD+Jp1/bILJJZJLNIvfWrdRzc1IQH8bRre2QWySySWaTe+tU6Dm5qwoN42rU9MotkFsksUm/9ah0HNzXhQTzt2h6ZRTKLZBapt361joObmvAgnnZtj8wimUUyi9Rbv1rHwU1NeBBPu7ZHZpHMIplF6q1frePgpiY8iKdd2yOzSGaRzCL11q/WcXBTEx7E067tkVkks0hmkXrrV+s4uKkJD+Jp1/bILJJZJLNIvfWrdRzc1IQH8bRre2QWySySWaTe+tU6Dm5qwoN42rU9MotkFsksUm/9ah0HNzXhQTzt2h6ZRTKLZBapt361joObmvAgnnZtj8wimUUyi9Rbv1rHwU1NeBBPu7ZHZpHMIplF6q1frePgpiY8iKdd2yOzSGaRzCL11q/WcXBTEx7E067tkVkks0hmkXrrV+s4uKkJD+Jp1/bILJJZJLNIvfWrdRzc1IQH8bRre2QWySySWaTe+tU6Dm5qwoN42rU9MotkFsksUm/9ah0HNzXhQTzt2h6ZRTKLZBapt361joObmvAgnnZtj8wimUUyi9Rbv1rHwU1NeBBPu7ZHZpHMIplF6q1frePgpiY8iKdd2yOzSGaRzCL11q/WcXBTEx7E067tkVkks0hmkXrrV+s4uKkJD+Jp1/bILJJZJLNIvfWrdRzc1IQH8bRre2QWySySWaTe+tU6Dm5qwoN42rU9MotkFsksUm/9ah0HNzXhQTzt2h6ZRTKLZBapt361joObmvAgnnZtj8wimUUyi9Rbv1rHwU1NeBBPu7ZHZpHMIplF6q1frePgpiY8iKdd2yOzSGaRzCL11q/WcXBTEx7E067tkVkks0hmkXrrV+s4uKkJD+Jp1/bILJJZJLNIvfWrdRzc1IQH8bRre2QWySySWaTe+tU6Dm5qwoN42rU9MotkFsksUm/9ah0HNzXhQTzt2h6ZRTKLZBapt361joObmvAgnnZtj8wimUUyi9Rbv1rHwU1NeBBPu7ZHZpHMIplF6q1frePgpiY8iKdd2yOzSGaRzCL11q/WcXBTEx7E067tkVkks0hmkXrrV+s4uKmJ48HUG7NIZpHMIplFoiykMQc3NUGHVA/MIplFMotkFomykMYc3CRJkjbCwU2SJGkjHNwkSZI2wsFNkiRpIxzcJEmSNsLBTZIkaSMc3CRJkjbCwU2SJGkjHNwkSZI2wsFNkiRpIxzcJEmSNsLBTZIkaSMc3CRJkjbCwU2SJGkjHNxWeOhDH3b4oR9+9OFH/vf/vYyoJ+qiesmctZIk6cHl4CZJkrQRDm6SJEkb4eAmSZK0EQ5ukiRJG+HgJkmStBEObpIkSRvh4CZJkrQRDm6SJEkb4eAmSZK0EQ5ukiRJG+HgJkmStBEObpIkSRvh4LbQw7/3EYefePxPHp769GccnvXs/7eMqCfqivqo7qE99PAd3/Fdh4c+9OGH7//+f3L4wR/8p2VEPVFX1Ed1D9nD5ZnTg6+Hy9Pb8/CQRz7k8MNPetThMc/5kcO/eP5jyoh6oq6oj+oe2sPzsFcObgs84vseiRuqmqiT6g976OE7v/O78CZRTdRJ9Qd7aOeiHnw9tLP35+F7fuC7cWiqJuqk+sMenoc9c3Bb4PE/9QTcRNVEnVR/2EMPD3vYw/HGUE3USfUHe2jnoh58PbSz9+fh0U9+FA5K1USdVH/Yw/OwZw5uCzztGc/ETVRN1En1hz30UO3LQeeJOqn+YA/tXNSDr4d29v48PLbYl0fPE3VS/WEPz8OeObgtQBuoKqo/0NqqqP5AN4WqqP5Aa6ui+gOtrYrqD7TvqqL6A/VbFdUfqN+qqP5AQ1JVVH+gfqui+vfOwW0B2jxVUf2B1lZF9Qe6IVRF9QdaWxXVH2htVVR/oH1XFdUfqN+qqP5A/VZF9QcakKqi+gP1WxXVv3cObgvQ5qmK6g+0tiqqP9ANoSqqP9Daqqj+QGurovoD7buqqP5A/VZF9QfqtyqqP9CAVBXVH6jfqqj+vXNwW4A2T1VUf6C1VVH9gW4IVVH9gdZWRfUHWlsV1R9o31VF9QfqtyqqP1C/VVH9gQakqqj+QP1WRfXvnYPbArR5qqL6A62tiuoPdEOoiuoPtLYqqj/Q2qqo/kD7riqqP1C/VVH9gfqtiuoPNCBVRfUH6rcqqn/vHNwWoM1TFdUfaG1VVH+gG0JVVH+gtVVR/YHWVkX1B9p3VVH9gfqtiuoP1G9VVH+gAakqqj9Qv1VR/Xvn4LYAbZ6qqP5Aa6ui+gPdEKqi+gOtrYrqD7S2Kqo/0L6riuoP1G9VVH+gfqui+gMNSFVR/YH6rYrq3zsHtwVo81RF9QdaWxXVH+iGUBXVH2htVVR/oLVVUf2B9l1VVH+gfqui+gP1WxXVH2hAqorqD9RvVVT/3jm4LUCbpyqqP9Daqqj+QDeEqqj+QGurovoDra2K6g+076qi+gP1WxXVH6jfqqj+QANSVVR/oH6rovr3zsFtAdo8VVH9gdZWRfUHuiFURfUHWlsV1R9obVVUf6B9VxXVH6jfqqj+QP1WRfUHGpCqovoD9VsV1b93Dm4L0OapiuoPtLYqqj/QDaEqqj/Q2qqo/kBrq6L6A+27qqj+QP1WRfUH6rcqqj/QgFQV1R+o36qo/r1zcFuANk9VVH+gtVVR/YFuCFVR/YHWVkX1B1pbFdUfaN9VRfUH6rcqqj9Qv1VR/YEGpKqo/kD9VkX1752D2wK0eaqi+gOtrYrqD3RDqIrqD7S2Kqo/0NqqqP5A+64qqj9Qv1VR/YH6rYrqDzQgVUX1B+q3Kqp/7xzcFqDNUxXVH2htVVR/oBtCVVR/oLVVUf2B1lZF9Qfad1VR/YH6rYrqD9RvVVR/oAGpKqo/UL9VUf175+C2AG2eqqj+QGurovoD3RCqovoDra2K6g+0tiqqP9C+q4rqD9RvVVR/oH6rovoDDUhVUf2B+q2K6t87B7cFaPNURfUHWlsV1R/ohlAV1R9obVVUf6C1VVH9gfZdVVR/oH6rovoD9VsV1R9oQKqK6g/Ub1VU/945uC1Am6cqqj/Q2qqo/kA3hKqo/kBrq6L6A62tiuoPtO+qovoD9VsV1R+o36qo/kADUlVUf6B+q6L6987BbQHaPEt8/tZbD/fdd98D3Hzzx3HtUlR/oLXnef2NbzjcfffdV2v805tuesD1d7373Yd777337Fr0NLz2ile96nD77befXYv/xq+H16eg+gPdEOZ405vefJjyiHX08XNQ/YHWTvXyl7/i8K1vfetKlfy46e+fK/rYJaj+QGunmvocxOMUvVD9gfbdFMO9T/s/DF8DYfz6mYvqD9TvVJHt8XHbbbcdnvjEn37A9eFeu8zXA/W71PB8pedlLao/0IC0xNv//K1X6z/6wlduPTzzNU/F9UtQ/YH6nWq838kpnw+qf+8c3BagzTNHHNy0mY9iSIphiT52Lqo/0NqLxEB5rG88XA6vjYez4Y1t6VBK9Qe6IczRw+AWD7oRL0H1B1o71dYHtzB8Pcdejz1/3vVT/MGM6g/U71QObvNR/YEGpDliMIsB7Vg7iaGOPnYuqj9Qv1NNGdwCvVaWoPr3zsFtAdo8U43/hD780/fwoFn67tQY1R9o7UWGN59xbcO6xy/G48eteZFS/YFuCHMMh4ZTDTfnofoDrZ1qeDONfJ/1rGfjtXhc5tBDa5f65Cc/daXiw9n/05o1qP5A+26O84aE4bvVl/2apn6ncnCbj+oPNCBNNR7abvnCLVevDd+Bu+feew6/+57fvnptKao/UL9TjQe34T1u/NWbUzwvVP/eObgtQJtnqosOk4s2/FJUf6C1Fxm+4IbvCI5fiOO6j/0OP2Yuqj/QDWGOPQ9u4dRDENUfaO1SWx3czvsD2fDd6FO8ngPVH6jfqRzc5qP6Aw1IUw2HszvvvvPwgrf88gOuf+CW/AP0Kb5sSvUH6neq693Hhq+JNfeFI6p/7xzcFqDNM8V4yKGDfLipT3HYUP2B1l5k+GIcvns2vmEN6x5+zJpeqP5AN4Q5HNzmofoDrV1qq4NbGL52Y9+/9W1vu/p6j1/H64E+bi6qP1C/Uzm4zUf1BxqQpop32I41D99tO4p32eLdtrh+infdqP5A/U7l4Hb5HNwWoM0zxXDIGQ4/Q7HJW2xqWns9wxdc/P/w9770pS9ffbEeb1LDQXXNuw1Uf6Abwhx7HtyG1+JxmTdbWrvUlge38R/M7rzzzrP/nvdaX4rqD9TvVA5u81H9gQakKcZfJo1318Zr4h24eCfuuGbt97pR/YH6neqiwW38GjnF80L1752D2wK0eaaYMpRVHtyGtR1fcMfDMQa44xB3vFEd16+9cVH9gW4IcwwHt/FjPAitRfUHWjvVeDg773GqAYjqD7R2qS0PbmH4h5ujUw8NVH+gfqdycJuP6g80IE0xHsr2Mrid51R/oKH6987BbQHaPFNsfXAb/mkpXpjHLwWNB7UQ/3+8iR3fgaPPOQXVH+iGMMfeB7e4FmvoY5eg+gOtXWrrg9v4pnWqm9MQ1R+o36kc3Oaj+gMNSFP0NLid8vmg+vfOwW0B2jxTxAEeB3ls3PMO9MqD2/AFGfV/5CN/efbfY53DwW74pdO1L1KqP9ANYY7h4LaXL5VGD9HL8XHK4YfqD7R2qa0PbmH4rtvaP7QQqj9Qv1M5uM1H9QcakKbo4Uull4Hq3zsHtwVo80wxHGzO29DDQ/8Uhw3VH2jtFMP6jt/Dc6xz+II9vhMX/7/2hUv1B7ohzLHHwS1+f3gTHv7+WlR/oLVLObhdH9UfqN+prvdaGF53cLsf1R9oQJpqzl9OiAEuBrnxmjmo/kD9TuXgdvkc3BagzTPVRYfJZWx4qj/Q2imipmN9R3GjOl4f3rRCDA5rv1RE9Qe6Icyx18Et/hu/Pj5ikBt/7BJUf6C1Szm4XR/VH6jfqc7bS0fHPwzEmlg7vLYE1R+o36W2OLjN+XEgNNjNRfUH6ncqB7fL5+C2AG2eqYZfLh1v6ss4aKj+QGunGL9rOB7MxoPdKW5cVH+gG8Icex3cwnAAOlVvVH+gtUs5uF0f1R+o36lif8Q+OT6Ge2a4zy57L1G/S21xcNv7D+C9DFT/3jm4LUCbZ47x8DZ2ysOe6g+0dqrhgXj8/rbjtfFgN3w3bimqP9ANYY7h4HbR4xTvWFH9gdZOddHgNrwWj8v88hatXcrB7fqo/kD9zjHeM+NHXIs19LFzUf2B+l1qi4NbGA9vZO33th1R/YH6ncrB7fI5uC1Am2eJ4cEyVH1wG96YxgfiZbxoqf5AN4Q59jy4XfQOylJUf6C1Szm4XR/VH6jfJYbPwfFx6ueC6g/U71JbHdyOhu+wHZ3iy6NDVH+gfqdycLt8Dm4L0OY5hYsGoqWo/kBrq6L6A90QqqL6A62tiuoPtLYqqj/QvquK6g/Ub1VUf6B+q6L6Aw1IVVH9gfqtiurfOwe3BWjznML4Tyrj7x9bguoPtLYqqj/QDaEqqj/Q2qqo/kBrq6L6A+27qqj+QP1WRfUH6rcqqj/QgFQV1R+o36qo/r1zcFuANs8pHd95c3C7H9Uf6IZQFdUfaG1VVH+gtVVR/YH2XVVUf6B+q6L6A/VbFdUfaECqiuoP1G9VVP/eObgtQJunKqo/0NqqqP5AN4SqqP5Aa6ui+gOtrYrqD7TvqqL6A/VbFdUfqN+qqP5AA1JVVH+gfqui+vfOwW0B2jxVUf2B1lZF9Qe6IVRF9QdaWxXVH2htVVR/oH1XFdUfqN+qqP5A/VZF9QcakKqi+gP1WxXVv3cObgvQ5qmK6g+0tiqqP9ANoSqqP9Daqqj+QGurovoD7buqqP5A/VZF9QfqtyqqP9CAVBXVH6jfqqj+vXNwW4A2T1VUf6C1VVH9gW4IVVH9gdZWRfUHWlsV1R9o31VF9QfqtyqqP1C/VVH9gQakqqj+QP1WRfXvnYPbArR5qqL6A62tiuoPdEOoiuoPtLYqqj/Q2qqo/kD7riqqP1C/VVH9gfqtiuoPNCBVRfUH6rcqqn/vHNwWoM1TFdUfaG1VVH+gG0JVVH+gtVVR/YHWVkX1B9p3VVH9gfqtiuoP1G9VVH+gAakqqj9Qv1VR/Xvn4LYAbZ6qqP5Aa6ui+gPdEKqi+gOtrYrqD7S2Kqo/0L6riuoP1G9VVH+gfqui+gMNSFVR/YH6rYrq3zsHtwVo81RF9QdaWxXVH+iGUBXVH2htVVR/oLVVUf2B9l1VVH+gfqui+gP1WxXVH2hAqorqD9RvVVT/3jm4LUCbpyqqP9Daqqj+QDeEqqj+QGurovoDra2K6g+076qi+gP1WxXVH6jfqqj+QANSVVR/oH6rovr3zsFtAdo8VVH9gdZWRfUHuiFURfUHWlsV1R9obVVUf6B9VxXVH6jfqqj+QP1WRfUHGpCqovoD9VsV1b93Dm4L0OapiuoPtLYqqj/QDaEqqj/Q2qqo/kBrq6L6A+27qqj+QP1WRfUH6rcqqj/QgFQV1R+o36qo/r1zcFuANk9VVH+gtVVR/YFuCFVR/YHWVkX1B1pbFdUfaN9VRfUH6rcqqj9Qv1VR/YEGpKqo/kD9VkX1752D2wK0eaqi+gOtrYrqD3RDqIrqD7S2Kqo/0NqqqP5A+64qqj9Qv1VR/YH6rYrqDzQgVUX1B+q3Kqp/7xzcFqDNUxXVH2htVVR/oBtCVVR/oLVVUf2B1lZF9Qfad1VR/YH6rYrqD9RvVVR/oAGpKqo/UL9VUf175+C2AG2eqqj+QGurovoD3RCqovoDra2K6g+0tiqqP9C+q4rqD9RvVVR/oH6rovoDDUhVUf2B+q2K6t87B7cFaPNURfUHWlsV1R/ohlAV1R9obVVUf6C1VVH9gfZdVVR/oH6rovoD9VsV1R9oQKqK6g/Ub1VU/945uC3wtGc8EzdQNVEn1R/20MP3f/8/wZtCNVEn1R/soZ2LevD10M7en4fHPudHcEiqJuqk+sMenoc9c3Bb4PE/9QTcRNVEnVR/2EMPD3vYw/HGUE3USfUHe2jnoh58PbSz9+fh0U9+FA5K1USdVH/Yw/OwZw5uCzzi+x6Jm6iaqJPqD3vo4Tu/87vwxlBN1En1B3to56IefD20s/fn4Xt+4LtxUKom6qT6wx6ehz1zcFvo4d/7iMNPPP4nD099+jNwQz1Yop6oK+qjuoeOPdDneTDN6eE7vuO7Dg996MPLfZko6om6oj6qe8geLs+cHvbwmvZ5uDxznoeHPPIhhx9+0qMOjyn2ZdOoJ+qK+qjuoT08D3vl4CZJkrQRDm6SJEkb4eAmSZK0EQ5ukiRJG+HgJkmStBEObpIkSRvh4CZJkrQRDm6SJEkb4eBWSNUfeBjm/NDDPfzgxqo/yDTs4YeZhj08Hz0+F1X72EMPYU4fezmnNI+DWxFb+SdGwkX/zMge/qmUrfzTQWEP/3xQ2MPz0cNzsZU+9tBDuKiPvZxTms/BrYit/KO+4aJ/2HcP/zjxVv6x7rCHf7A77OH56OG52Eofe+ghXNTHXs4pzefgVsTTnvFMfOFWFLVSD2ErfVzUQ8UvO5wnaqUewl721Faejx6ei630sYcewkV97OWc0nwObkXQi7Yy6iHQ2qqo/kAHT2XUQ6CeK6MeAvVcFdUfqN/KqIdAa6ui+gOtrYx6CLT/KqMetIyDWxH0gq2Megi0tiqqP9ChUxn1EKjnyqiHQD1XRfUH6rcy6iHQ2qqo/kBrK6MeAu2/yqgHLePgVgS9YCujHgKtrYrqD3ToVEY9BOq5MuohUM9VUf2B+q2Megi0tiqqP9DayqiHQPuvMupByzi4FUEv2Mqoh0Brq6L6Ax06lVEPgXqujHoI1HNVVH+gfiujHgKtrYrqD7S2Muoh0P6rjHrQMg5uRdALtjLqIdDaqqj+QIdOZdRDoJ4rox4C9VwV1R+o38qoh0Brq6L6A62tjHoItP8qox60jINbEfSCrYx6CLS2Kqo/0KFTGfUQqOfKqIdAPVdF9QfqtzLqIdDaqqj+QGsrox4C7b/KqAct4+BWBL1gK6MeAq2tiuoPdOhURj0E6rky6iFQz1VR/YH6rYx6CLS2Kqo/0NrKqIdA+68y6kHLOLgVQS/YyqiHQGurovoDHTqVUQ+Beq6MegjUc1VUf6B+K6MeAq2tiuoPtLYy6iHQ/quMetAyDm5F0Au2Muoh0NqqqP5Ah05l1EOgniujHgL1XBXVH6jfyqiHQGurovoDra2Megi0/yqjHrSMg1sR9IKtjHoItLYqqj/QoVMZ9RCo58qoh0A9V0X1B+q3Muoh0NqqqP5AayujHgLtv8qoBy3j4FYEvWArox4Cra2K6g906FRGPQTquTLqIVDPVVH9gfqtjHoItLYqqj/Q2sqoh0D7rzLqQcs4uBVBL9jKqIdAa6ui+gMdOpVRD4F6rox6CNRzVVR/oH4rox4Cra2K6g+0tjLqIdD+q4x60DIObkXQC7Yy6iHQ2qqo/kCHTmXUQ6CeK6MeAvVcFdUfqN/KqIdAa6ui+gOtrYx6CLT/KqMetIyDWxH0gq2Megi0tiqqP9ChUxn1EKjnyqiHQD1XRfUH6rcy6iHQ2qqo/kBrK6MeAu2/yqgHLePgVgS9YCujHgKtrYrqD3ToVEY9BOq5MuohUM9VUf2B+q2Megi0tiqqP9DayqiHQPuvMupByzi4FUEv2Mqoh0Brq6L6Ax06lVEPgXqujHoI1HNVVH+gfiujHgKtrYrqD7S2Muoh0P6rjHrQMg5uRdALtjLqIdDaqqj+QIdOZdRDoJ4rox4C9VwV1R+o38qoh0Brq6L6A62tjHoItP8qox60jINbEfSCXePzt956uO+++87cfffdh9ff+AZctxT1EGjtEq941asOt99++9UejuL34hp9zFxUf6BDZ46Xv/wVh29961uH8x5vetOb8eOWoh4C9TzXu9797sO99957zfMw9qc33YQfPwf1EKjnJZ71rGef9TJ8xPMUzxetX4LqD9TvHJHvMWt6Ddx888evXo/X/vDaEtRDoLVrjF/n0QetW4LqD7R2jnHN470/fK5iv8VraHh9Luoh0P6ba3hWRa3xGqF1p0A9aBkHtyLoBbtUDGkxrB0PDzpc1qIeAq2da3jwnecU/VD9gQ6dOa43uMXjlAMD9RCo57n2Mrjd9Pf1XfT45Cc/hR83F9UfqN85hq8JB7dpqP5Aa+e4aHAbvl5O9Qdm6iHQ/pvLwW2bHNyKoBfsUjT4nOIwH6IeAq2dYzh0jv+0Orw5neJQpPoDHTpznHcYjt/xOdXwRj0E6nmuy7gRnYd6CNTzHPEO5/ExzPyJT/zpw2233XblyuFsuBt/7FxUf6B+53Bwm4/qD7R2jvMGt4sGujWoh0D7by4Ht21ycCuCXrBLHb9MGjfay7rpUg+B1s4xvEHRDSgO9uoH4kWH4XhYiP+P3xt+/FzUQ6Ce59r64Ha94ezUNy6qP1C/czi4zUf1B1o7x3kD2qmfgyPqIdD+m8vBbZsc3IqgF+wSw3es4iA5DnHDA+YUqIdAa+cYHn5xkAzfcTs1qj/QoTPH9Q7D894BWop6CNTzXFsf3IbPBWU9HuzWfv8h1R+o3zkc3Oaj+gOtnYMGt+HrhJ6fNaiHQPtvLge3bXJwK4JesEscD/jj0DM88Fv8KZDWzjE8AIdOfRgGqj/QoTPH9Q7D+HX8/vFRdVgIWx/cht/bRs/FqVH9gfqdw8FtPqo/0No5xjX/2Z//+QN+feqzinoItP/mcnDbJge3IugFu8TxHbbj4TF8B+6UN17qIdDauYbvEpJTDaBUf6BDZ465g9va762iHgL1PNd5g3SI34/r9HFLUA+Bep5qOLid4svS10P1B+p3juHgdj0Obvej+gOtnWNc85133nn1/4/i+aKPXYJ6CLT/5nJw2yYHtyLoBTvX+Muk8XvjQ+ZUBwr1EGjtEte7UZ3iT7VUf6BDZw4Ht2Woh0A9T3Xe4Db8/eFjC18qvR4Ht/tR/YHWzjGumZzifDqiHgLtv7kc3LbJwa0IesHONeVwv+x3q2jtWucND2uHUKo/0KEzx9zBzS+V3o96CNTzVMMBbfhcbHlwo6HAL5Vei+oPtHYOGtwi8/H5u/Z8OqIeAu2/uRzctsnBrQh6wc4Vh8fw4CCnuvlSD4HWzhUHI9V46kOe6g906MxxvcMwhoPjI9bF+uH1uaiHQD3PtfXBbcqNKX6G2/Hh4HY/6iHQ2jX2MLgdXxfj36fnaQnqIdD+m8vBbZsc3IqgF+wccXCMv0x6ND5QTvEnQeoh0No5jrXGIUJfhhsOp1sc3MZ/i/EUP/iVegjU81xbH9yu97dG47mJ/o4PB7f7UQ+B1q4xfjf9VO9SBao/0No5LjpPh8/TqfqhHgLtv7kc3LbJwa0IesHOMTww6LDYwsE+PhDHvZx6iKD6Ax06c5x3GI6HhFgTa8cfPxf1EKjnubY+uIXz3uEcD3XxcHC7H/UQaO1cwz9kDsU+oz+sLUX1B1o7x0WD2/gaPVdzUQ+B9t9cDm7b5OBWBL1g5zi+E3XezbXV0ENr56DhbexUBzzVH+jQmWN4GJ73ONXQFqiHQD3PtYfBLZz3PW3jh4Pb/aiHQGvnOm9wO8WQM0T1B1o7x/iMGv9Befhc0fW5qIdA+2+ulmcV9aBlHNyKoBfsVMOD8LzDb3xYXtaXGWntEucd7qe4KR1R/YEOnTmudxjGEEEftxT1EKjnufYyuIXxO57xOP5N0+O7cg5u96MeAq2da7injtaeR4TqD7R2jusNbuPra1831EOg/TeXg9s2ObgVQS/YyqiHQGurovoDHTqVUQ+Beq6MegjUc1VUf6B+K6MeAq2tiuoPtLYy6iHQ/quMetAyDm5F0Au2Muoh0NqqqP5Ah05l1EOgniujHgL1XBXVH6jfyqiHQGurovoDra2Megi0/yqjHrSMg1sR9IKtjHoItLYqqj/QoVMZ9RCo58qoh0A9V0X1B+q3Muoh0NqqqP5AayujHgLtv8qoBy3j4FYEvWArox4Cra2K6g906FRGPQTquTLqIVDPVVH9gfqtjHoItLYqqj/Q2sqoh0D7rzLqQcs4uBVBL9jKqIdAa6ui+gMdOpVRD4F6rox6CNRzVVR/oH4rox4Cra2K6g+0tjLqIdD+q4x60DIObkXQC7Yy6iHQ2qqo/kCHTmXUQ6CeK6MeAvVcFdUfqN/KqIdAa6ui+gOtrYx6CLT/KqMetIyDWxH0gq2Megi0tiqqP9ChUxn1EKjnyqiHQD1XRfUH6rcy6iHQ2qqo/kBrK6MeAu2/yqgHLePgVgS9YCujHgKtrYrqD3ToVEY9BOq5MuohUM9VUf2B+q2Megi0tiqqP9DayqiHQPuvMupByzi4FUEv2Mqoh0Brq6L6Ax06lVEPgXqujHoI1HNVVH+gfiujHgKtrYrqD7S2Muoh0P6rjHrQMg5uRdALtjLqIdDaqqj+QIdOZdRDoJ4rox4C9VwV1R+o38qoh0Brq6L6A62tjHoItP8qox60jINbEfSCrYx6CLS2Kqo/0KFTGfUQqOfKqIdAPVdF9QfqtzLqIdDaqqj+QGsrox4C7b/KqAct4+BWBL1gK6MeAq2tiuoPdOhURj0E6rky6iFQz1VR/YH6rYx6CLS2Kqo/0NrKqIdA+68y6kHLOLgVQS/YyqiHQGurovoDHTqVUQ+Beq6MegjUc1VUf6B+K6MeAq2tiuoPtLYy6iHQ/quMetAyDm5F0Au2Muoh0NqqqP5Ah05l1EOgniujHgL1XBXVH6jfyqiHQGurovoDra2Megi0/yqjHrSMg1sR9IKtjHoItLYqqj/QoVMZ9RCo58qoh0A9V0X1B+q3Muoh0NqqqP5AayujHgLtv8qoBy3j4FYEvWArox4Cra2K6g906FRGPQTquTLqIVDPVVH9gfqtjHoItLYqqj/Q2sqoh0D7rzLqQcs4uBVBL9jKqIdAa6ui+gMdOpVRD4F6rox6CNRzVVR/oH4rox4Cra2K6g+0tjLqIdD+q4x60DIObkXQC7Yy6iHQ2qqo/kCHTmXUQ6CeK6MeAvVcFdUfqN/KqIdAa6ui+gOtrYx6CLT/KqMetIyDWxH0gq2Megi0tiqqP9ChUxn1EKjnyqiHQD1XRfUH6rcy6iHQ2qqo/kBrK6MeAu2/yqgHLePgVsTTnvFMfNFWFLVSD2ErfVzUw/d//z/Bg6eiqJV6CHvZU1t5Pnp4LrbSxx56CBf1sZdzSvM5uBXx+J96Ar5wK4paqYewlT4u6uFhD3s4Hj4VRa3UQ9jLntrK89HDc7GVPvbQQ7ioj72cU5rPwa2IR3zfI/GFW1HUSj2ErfRxUQ/f+Z3fhYdPRVEr9RD2sqe28nz08FxspY899BAu6mMv55Tmc3Ar5OHf+4jDTzz+Jw9Pffoz8EX8YIqaoraokWofqtrHnB6+4zu+6/DQhz685JcjoqaoLWqk2of2sqeqPh89PhdV+9hDD2FOH3s5pzSPg5skSdJGOLhJkiRthIObJEnSRji4SZIkbYSDmyRJ0kY4uEmSJG2Eg5skSdJGOLhJkiRthIPbQpV/gONl6PGHW1btw+eCP9+DYU4PD3nkQw4//KRHHR7znB85/IvnP6aUqClqixqp9qE9PBdVewh76eMyzMlmzxzcFtjSP5lyGXr452S20ofPRR0X9fA9P/DdODBVFLVSD2EPz8VWegh76eMyXJTN3jm4LbClf6T4MvTwDzhvpQ+fizou6uHRT34UDkkVRa3UQ9jDc7GVHsJe+rgMF2Wzdw5uCzztGc/EjdSL6J9yCVvKZg99+FzUcVEPjy345dHzRK3UQ9jDc7GVHsJe+rgMF2Wzdw5uC9Am6g3lEmhtZdRDoLVVUf2B1lZGPQRaWxXVH2hAqox6CNRzVVR/oLWVUQ+B1vaGcumBg9sCtIF6Q7kEWlsZ9RBobVVUf6C1lVEPgdZWRfUHGo4qox4C9VwV1R9obWXUQ6C1vaFceuDgtgBtoN5QLoHWVkY9BFpbFdUfaG1l1EOgtVVR/YGGo8qoh0A9V0X1B1pbGfUQaG1vKJceOLgtQBuoN5RLoLWVUQ+B1lZF9QdaWxn1EGhtVVR/oOGoMuohUM9VUf2B1lZGPQRa2xvKpQcObgvQBuoN5RJobWXUQ6C1VVH9gdZWRj0EWlsV1R9oOKqMegjUc1VUf6C1lVEPgdb2hnLpgYPbArSBekO5BFpbGfUQaG1VVH+gtZVRD4HWVkX1BxqOKqMeAvVcFdUfaG1l1EOgtb2hXHrg4LYAbaDeUC6B1lZGPQRaWxXVH2htZdRDoLVVUf2BhqPKqIdAPVdF9QdaWxn1EGhtbyiXHji4LUAbqDeUS6C1lVEPgdZWRfUHWlsZ9RBobVVUf6DhqDLqIVDPVVH9gdZWRj0EWtsbyqUHDm4L0AbqDeUSaG1l1EOgtVVR/YHWVkY9BFpbFdUfaDiqjHoI1HNVVH+gtZVRD4HW9oZy6YGD2wK0gXpDuQRaWxn1EGhtVVR/oLWVUQ+B1lZF9QcajiqjHgL1XBXVH2htZdRDoLW9oVx64OC2AG2g3lAugdZWRj0EWlsV1R9obWXUQ6C1VVH9gYajyqiHQD1XRfUHWlsZ9RBobW8olx44uC1AG6g3lEugtZVRD4HWVkX1B1pbGfUQaG1VVH+g4agy6iFQz1VR/YHWVkY9BFrbG8qlBw5uC9AG6g3lEmhtZdRDoLVVUf2B1lZGPQRaWxXVH2g4qox6CNRzVVR/oLWVUQ+B1vaGcumBg9sCtIF6Q7kEWlsZ9RBobVVUf6C1lVEPgdZWRfUHGo4qox4C9VwV1R9obWXUQ6C1vaFceuDgtgBtoN5QLoHWVkY9BFpbFdUfaG1l1EOgtVVR/YGGo8qoh0A9V0X1B1pbGfUQaG1vKJceOLgtQBuoN5RLoLWVUQ+B1lZF9QdaWxn1EGhtVVR/oOGoMuohUM9VUf2B1lZGPQRa2xvKpQcObgvQBuoN5RJobWXUQ6C1VVH9gdZWRj0EWlsV1R9oOKqMegjUc1VUf6C1lVEPgdb2hnLpgYPbArSBekO5BFo7x5/edNPhvvvuu66777778Pob34CfYw7qIdDaKV7xqlcdbr/99qt13nvvvYd3vfvdD1gTv47fP+/6XFR/oLVLDWs+ij6jX1q/BPUQaO1UN9/88av1nrdnhr2t7YnqDzQczfHM1zz18IWv3Hq1F3LLF27Bj12CegjU81Tj1wZlPXwu4iwYXpuL6g+0dopx/eHzt966eN1U1EOgtZfl2c/5hcMb3vjGwzvf9e5Z3vTmNx9+8Zeeh5/zFCiXHji4LUAbqDeUS6C1c0wd3NbeYI+oh0Brp7roBjW8doqhLVD9gdYuETedYy9jp+ohUA+B1k41HjhpGBjuucsaFmg4mmPK4BbuvPvOwwve8sv4OeagHgL1PBUNNOO8tza40R8GxnsubH1w+8Cf/dkD+pnjlltuwc95CpRLDxzcFqANNMXwBjEU7wocrw1v8scD4BN/v/HjgBh/XBh+7NRrp7jZUi6B1p7CcHg4Rf1H1EOgtXOMD+/jTWj4fMTzM/64Jaj+QGvnGuY+3JtT3smai3oItHaq8c2WMj/2eIo+qP5Aw9Ec48Ht7X/+1qvXYlCLge147RTvvFEPgXqeasrgM3zdHF8zS1H9gdZOQfVTnXTmbnlwe/Xv/d5ZDx/96McOL3/lq2b5+Cc+cfjmN7+Jn/cUKJceOLgtQBtoiuMLmm4edEM/HmLDg+F4kxn+3pTPO/6ca29SlEugtWuNh6A1h+AY9RBo7VzDoSfyji8dxH/j18MhaC2qP9DaOYa5j/fLlIFoLuoh0No5orZjnePco6fjc3KKfUX1BxqO5rhocAvx6+O1WBfrh9fnoh4C9TzVeYPPMPetDG7x3/P2zfB1f7Rmb1EPgdae2vN++fmHr371q4e77rrr8Mu/8oKrv//c593wgHXn/f6ff/CDZ/0Pf++UKJceOLgtQBtoiikDVjjeJC9jcDsePvF54/OP109FuQRau8b4sB8PEGtRD4HWzjUcCsaGz99aVH+gtXMMBx668Vzv+lzUQ6C1cwyHgfG+P74+wimeE6o/0HA0x5zBbQvvuMXrgp6T4XO19vmg+gOtnWJY/5e+9OUH9HI8k46v+egh1sT1sNXB7cN/8Rdn9b/u9Tde/b1ffeGLznqP718brn3Ri198NuT9/utef/X3PvihD519/HDdKVEuPXBwW4A20BTjIWp8LV7st/zVX11dczzEhgfY2sHt+DnXDkCUS6C1axzrPxr2fQrUQ6C1S4zrD6cYcoao/kBr5zjutUB769Soh0Br5xgP/8M9FH3F7619PRxR/YGGozkuGtyuN9QtQT0E6nmq4fMQ/z2edcdfx/WtDG7x2jjunWGtx9f7uL8tDm6/99rfP6v9f/2vjz7g91/wn154uO22286uHYe349AWXxZ99Wt+7+paB7fL4eC2AG2gKcY38Tigjn/SjGvx6//+3veevejj/z/ykb88++/wALtocDvv8w6vhVPcpCiXQGuXOv7p9Vj38XCntUtRD4HWLjUcgE41IAxR/YHWTjUedrY8uIXhTfZ4Ex3fiMcfswTVH2g4mmM8nJF77r3n8Lvv+e1rPnYJ6iFQz1MN847/xutgvMe2NLgNaz2+Po6v9fg17bklqIdAa08lvkR65513non/H18fDm/vevcfXx3aXvv7r3vAOr9Uejkc3BagDTTFcYg6vsjH144D1/FAiJt8/Hd4gB0PhuHvXe/zHq8NP+8WBrdjr+GYDa1bg3oItHaJ8fAZ1hzihOoPtHaqvQ1uw5vscf8Pf2/4elqD6g80HM0xZXALsSbW0ueYg3oI1PNU48Etfj1+XuJ5ONVzQvUHWjvFeHAb9/PWt73t6pkdfW15cDu+U/a7r3kNXg/D4W38TtuR77hdDge3BWgDTXG9Aev4go9fD4eW4QF2/P3h713v8w6v0ccvQbkEWrvE8EAPaw6+i1APgdYuMXwej4bP8ylQ/YHWTrW3wW3cT+z/4431FH+QOaL6Aw1Hc1zvy6HxfW3Ha1v4Hrf4b/w6fn/4GjkOPvH/1c6oYf3H8+i4h6Lm41dIjr0drw3XL0E9BFp7KseBK75cStfD8XvdYl0Mbq957WuvWePgdjkc3BagDTTF9Qas4Q19+E7N8AA7HnLD37ve5x1eO/56zUESKJdAa+ca32RPeWMdox4CrZ3rmHUYfjNzOB7u9HFzUf2B1s4x5cZz3I+n6Id6CLR2iWE/8f1Hx+dj7WthiOoPNBzNcb3BLb5EGl8qjWun+JIp9RCo56mGr+vhfqF3pcPwjFuC6g+0doph/cc9M3yNHx2vTXn9TEE9BFp7Kjc8/1cOX/va184M/zbp0a++0C+VPpgc3BagDTQFvchDvMDj2vidmOMLf3iAHW+Uw9+73uc9/n+sPW8gnItyCbR2rnE/a+q8Huoh0No5hof8cfAcv4t4fE7WovoDrZ1jWC8Nz8Prp+iFegi0dolxP8f/P+X+ovoDDUdz7HlwC+PXfFj7vFD9gdZOQYMbDZ3Huo/n93D9EtRDoLWndN5fThi+0/bGP/iDs9970Ytfcvb9cON33nzH7XI4uC1AG6g3lEugtXOMD8LxAX9q1EOgtXMMD+3hUHMcvAMNQ0tQ/YHWzjWsd/hcDJ+nLfQRhjfeo1PVfkT1BxqO5pjzpdJT/OsJ1EOgnqca5j9+XdNzs4XBLZz3mt764BaOPw5k+BqJwe2OO+64OrQdveSlv342vA3fdXNwuxwObgvQBuoN5RJo7RzDQ/AilYeF4Ts74xtU1HwceMKaA/2I6g+0di66oQ5Fn9Evfexc1EOgtUsNb6bhFPkPUf2BhqM5xoPbRT5wy034OeagHgL1PNVwL41fF2H4uglbGdyG7xYOf38Pg9vxS6bxA3h/5Vf/09Xf9wfwPrgc3BagDdQbyiXQ2jnigDsedhepOrhNufmcenig+gOtXWp4czpV3WPUQ6C1S516OBij+gMNR3NMGdy29uNAxoNbGL42tjK4Df8wNqx5D4NbiC99Rg8f/diyf/IqPpY+7ylQLj1wcFuANlBvKJdAayujHgKtrYrqD7S2Muoh0NqqqP5Aw1Fl1EOgnqui+gOtrYx6CLT2shzfOVviU5/6FH7OU6BceuDgtgBtoN5QLoHWVkY9BFpbFdUfaG1l1EOgtVVR/YGGo8qoh0A9V0X1B1pbGfUQaO1lefZzfuHwhjf+wdm/tzxH/MsK531Z9RQolx44uC1AG6g3lEugtZVRD4HWVkX1B1pbGfUQaG1VVH+g4agy6iFQz1VR/YHWVkY9BFrbG8qlBw5uC9AG6g3lEmhtZdRDoLVVUf2B1lZGPQRaWxXVH2g4qox6CNRzVVR/oLWVUQ+B1vaGcumBg9sCtIF6Q7kEWlsZ9RBobVVUf6C1lVEPgdZWRfUHGo4qox4C9VwV1R9obWXUQ6C1vaFceuDgtgBtoN5QLoHWVkY9BFpbFdUfaG1l1EOgtVVR/YGGo8qoh0A9V0X1B1pbGfUQaG1vKJceOLgtQBuoN5RLoLWVUQ+B1lZF9QdaWxn1EGhtVVR/oOGoMuohUM9VUf2B1lZGPQRa2xvKpQcObgvQBuoN5RJobWXUQ6C1VVH9gdZWRj0EWlsV1R9oOKqMegjUc1VUf6C1lVEPgdb2hnLpgYPbArSBekO5BFpbGfUQaG1VVH+gtZVRD4HWVkX1BxqOKqMeAvVcFdUfaG1l1EOgtb2hXHrg4LYAbaDeUC6B1lZGPQRaWxXVH2htZdRDoLVVUf2BhqPKqIdAPVdF9QdaWxn1EGhtbyiXHji4LUAbqDeUS6C1lVEPgdZWRfUHWlsZ9RBobVVUf6DhqDLqIVDPVVH9gdZWRj0EWtsbyqUHDm4L0AbqDeUSaG1l1EOgtVVR/YHWVkY9BFpbFdUfaDiqjHoI1HNVVH+gtZVRD4HW9oZy6YGD2wK0gXpDuQRaWxn1EGhtVVR/oLWVUQ+B1lZF9QcajiqjHgL1XBXVH2htZdRDoLW9oVx64OC2AG2g3lAugdZWRj0EWlsV1R9obWXUQ6C1VVH9gYajyqiHQD1XRfUHWlsZ9RBobW8olx44uC1AG6g3lEugtZVRD4HWVkX1B1pbGfUQaG1VVH+g4agy6iFQz1VR/YHWVkY9BFrbG8qlBw5uC9AG6g3lEmhtZdRDoLVVUf2B1lZGPQRaWxXVH2g4qox6CNRzVVR/oLWVUQ+B1vaGcumBg9sCtIF6Q7kEWlsZ9RBobVVUf6C1lVEPgdZWRfUHGo4qox4C9VwV1R9obWXUQ6C1vaFceuDgtgBtoN5QLoHWVkY9BFpbFdUfaG1l1EOgtVVR/YGGo8qoh0A9V0X1B1pbGfUQaG1vKJceOLgtQBuoN5RLoLWVUQ+B1lZF9QdaWxn1EGhtVVR/oOGoMuohUM9VUf2B1lZGPQRa2xvKpQcObgs87RnPxE3Ui+ifcglbymYPffhc1HFRD499zo/ggFRR1Eo9hD08F1vpIeylj8twUTZ75+C2wON/6gm4kXoR/VMuYUvZ7KEPn4s6Lurh0U9+FA5JFUWt1EPYw3OxlR7CXvq4DBdls3cObgs84vseiRupF9E/5RK2lM0e+vC5qOOiHr7nB74bh6SKolbqIezhudhKD2EvfVyGi7LZOwe3hR7+vY84/MTjf/Lw1Kc/AzfV3kSf0W/0TXkMVc5mD334XPDnezDM6eEhj3zI4Yef9KjDYwp+2TRqitqiRqp9aA/PRdUewl76uAxzstkzBzdJkqSNcHCTJEnaCAc3SZKkjXBwkyRJ2ggHN0mSpI1wcJMkSdoIBzdJkqSNcHCTJEnaCAc3SZKkjXBwkyRJ2ggHN0mSpI1wcJMkSdoIBzdJkqSNcHCTJEnaCAc3SZKkjXBwkyRJ2ggHN0mSpI1wcJMkSdoIBzdJkqSNcHCTJEnaCAc3SZKkjXBwkyRJ2ggHN0mSpI1wcJMkSdoIBzdJkqSNcHCTJEnaCAc3SZKkjXBwkyRJ2ggHN0mSpI1wcJMkSdoIBzdJkqSNcHCTJEnaCAc3SZKkjXBwkyRJ2ggHN0mSpI1wcJMkSdqEf3T4/wFDydfo+CWm2AAAAABJRU5ErkJggg==;" vertex="1" parent="1">
                    <mxGeometry x="18" y="170" width="212" height="236.54" as="geometry"/>
                </mxCell>
            </root>
        </mxGraphModel>
    </diagram>
</mxfile>